<?xml version="1.0" encoding="utf-8"?>
<!-- Generator: Fusion 360, Shaper Origin Export Add-In, Version 1.4.1  -->
<svg enable-background="new 0 0 25.5268005 11.2536561" height="11.2536561cm" shaper:fusionaddin="version:1.4.1" version="1.1" viewBox="0 0 25.5268005 11.2536561" width="25.5268005cm" x="0cm" xml:space="preserve" xmlns="http://www.w3.org/2000/svg" xmlns:shaper="http://www.shapertools.com/namespaces/shaper" xmlns:xlink="http://www.w3.org/1999/xlink" y="0cm"><path d="M21.4585999,0 L21.5336998,0.0057999 21.6074997,0.0209 21.6788002,0.0452003 21.7465996,0.0782997 21.8096001,0.1195 21.8669998,0.1683998 21.9178001,0.2239998 21.9612,0.2856003 21.9965996,0.3521004 22.0234001,0.4224998 22.0410995,0.4958 23.4843002,8.6808901 23.4927002,8.7557701 23.4917,8.83111 23.4811996,8.9057301 23.4613998,8.9784401 23.4326996,9.0481001 23.3955002,9.11362 23.3503998,9.17395 23.2979996,9.2281601 23.2392998,9.27537 23.1750999,9.31485 23.1065002,9.3459801 23.0345001,9.3682601 13.916515,11.2536561 7.5420849,11.2536561 -1.5759003,9.3682601 -1.6479004,9.3459801 -1.7165001,9.31485 -1.7806999,9.27537 -1.8393997,9.2281601 -1.8917999,9.17395 -1.9369003,9.11362 -1.9740997,9.0481001 -2.0028,8.9784401 -2.0225998,8.9057301 -2.0331001,8.83111 -2.0341003,8.7557701 -2.0257004,8.6808901 -0.5824997,0.4958 -0.5648003,0.4224998 -0.5379997,0.3521004 -0.5026001,0.2856003 -0.4592003,0.2239998 -0.4084,0.1683998 -0.3510002,0.1195 -0.2879997,0.0782997 -0.2202003,0.0452003 -0.1488998,0.0209 -0.0750999,0.0057999 -0,0 21.4585999,0z" fill="rgb(0,0,0)" shaper:cutDepth="0.0026" shaper:pathType="exterior" transform="matrix(1,0,0,-1,2.0341003,11.2536561)" vector-effect="non-scaling-stroke" /><path d="M8.2188019,0.4 a0.1,0.1 0 1,1 0.2,0 a0.1,0.1 0 1,1 -0.2,0z" fill="rgb(255,255,255)" shaper:cutDepth="0.0026" shaper:pathType="interior" stroke="rgb(0,0,0)" stroke-width="2" transform="matrix(1,0,0,-1,2.0341003,11.2536561)" vector-effect="non-scaling-stroke" /><path d="M-0.0916004,0.59995 a0.1,0.1 0 1,1 0.2,0 a0.1,0.1 0 1,1 -0.2,0z" fill="rgb(255,255,255)" shaper:cutDepth="0.0026" shaper:pathType="interior" stroke="rgb(0,0,0)" stroke-width="2" transform="matrix(1,0,0,-1,2.0341003,11.2536561)" vector-effect="non-scaling-stroke" /><path d="M22.5594454,8.4785987 L22.5299011,8.4838082 22.535908,8.5132006 20.5757067,8.9138026 20.5696999,8.8844101 20.5228192,8.6185143 18.6516793,8.9484443 18.6464699,8.9189001 18.5648588,8.4560343 16.7921995,8.7686042 16.89118,9.32995 16.8963895,9.3594943 15.0252595,9.6894243 15.1068699,10.152281 13.1372599,10.4995771 13.05912,10.0564141 11.1879809,10.3863451 10.7292999,7.7850401 10.2706189,10.3863451 8.3994799,10.0564141 8.32134,10.4995771 6.35173,10.152281 6.4333406,9.6894243 4.5622104,9.3594943 4.5674198,9.32995 4.6664004,8.7686043 2.8937407,8.4560342 2.81213,8.9189001 0.9409897,8.58897 0.8889,8.8844101 0.8836905,8.9139543 -1.0859095,8.5666544 -1.0806999,8.5371101 -1.1102441,8.5319007 0.2268561,0.9488806 0.2564003,0.9540901 2.1275101,1.2840202 2.1795998,0.9885803 4.0507401,1.3185104 4.1375603,0.8261101 6.10718,1.17341 6.00299,1.7642899 7.8741199,2.09422 7.7872999,2.5866302 9.8490416,2.9501703 9.1460737,6.9369066 10.7292999,7.249788 12.3125262,6.9369066 11.6095583,2.9501702 13.6712999,2.5866302 13.5844799,2.09422 15.4556099,1.7642899 15.3514198,1.17341 17.3210396,0.8261101 17.4078598,1.3185104 19.2790001,0.9885803 19.3310898,1.2840202 21.2021996,0.9540901 21.2317438,0.9488806 22.5594454,8.4785987z" fill="rgb(255,255,255)" shaper:cutDepth="0.0026" shaper:pathType="interior" stroke="rgb(0,0,0)" stroke-width="2" transform="matrix(1,0,0,-1,2.0341003,11.2536561)" vector-effect="non-scaling-stroke" /><path d="M11.7421964,2.123105 L9.7421964,2.123105 A0.15,0.15 90 0,1 9.7421964,1.823105 L11.7421964,1.823105 A0.15,0.15 270 0,1 11.7421964,2.123105z" fill="rgb(255,255,255)" shaper:cutDepth="0.0026" shaper:pathType="interior" stroke="rgb(0,0,0)" stroke-width="2" transform="matrix(1,0,0,-1,2.0341003,11.2536561)" vector-effect="non-scaling-stroke" /><path d="M22.7934502,8.785085 a0.1,0.1 0 1,1 0.2,0 a0.1,0.1 0 1,1 -0.2,0z" fill="rgb(255,255,255)" shaper:cutDepth="0.0026" shaper:pathType="interior" stroke="rgb(0,0,0)" stroke-width="2" transform="matrix(1,0,0,-1,2.0341003,11.2536561)" vector-effect="non-scaling-stroke" /><path d="M-1.5349561,8.7813761 a0.1,0.1 0 1,1 0.2,0 a0.1,0.1 0 1,1 -0.2,0z" fill="rgb(255,255,255)" shaper:cutDepth="0.0026" shaper:pathType="interior" stroke="rgb(0,0,0)" stroke-width="2" transform="matrix(1,0,0,-1,2.0341003,11.2536561)" vector-effect="non-scaling-stroke" /><path d="M7.4420849,10.7536561 a0.1,0.1 0 1,1 0.2,0 a0.1,0.1 0 1,1 -0.2,0z" fill="rgb(255,255,255)" shaper:cutDepth="0.0026" shaper:pathType="interior" stroke="rgb(0,0,0)" stroke-width="2" transform="matrix(1,0,0,-1,2.0341003,11.2536561)" vector-effect="non-scaling-stroke" /><path d="M13.816515,10.7536561 a0.1,0.1 0 1,1 0.2,0 a0.1,0.1 0 1,1 -0.2,0z" fill="rgb(255,255,255)" shaper:cutDepth="0.0026" shaper:pathType="interior" stroke="rgb(0,0,0)" stroke-width="2" transform="matrix(1,0,0,-1,2.0341003,11.2536561)" vector-effect="non-scaling-stroke" /><path d="M21.3502003,0.59995 a0.1,0.1 0 1,1 0.2,0 a0.1,0.1 0 1,1 -0.2,0z" fill="rgb(255,255,255)" shaper:cutDepth="0.0026" shaper:pathType="interior" stroke="rgb(0,0,0)" stroke-width="2" transform="matrix(1,0,0,-1,2.0341003,11.2536561)" vector-effect="non-scaling-stroke" /><path d="M13.0397979,0.4 a0.1,0.1 0 1,1 0.2,0 a0.1,0.1 0 1,1 -0.2,0z" fill="rgb(255,255,255)" shaper:cutDepth="0.0026" shaper:pathType="interior" stroke="rgb(0,0,0)" stroke-width="2" transform="matrix(1,0,0,-1,2.0341003,11.2536561)" vector-effect="non-scaling-stroke" /></svg>